<?xml version="1.0" standalone="no"?><!DOCTYPE svg PUBLIC "-//W3C//DTD SVG 1.1//EN" "http://www.w3.org/Graphics/SVG/1.1/DTD/svg11.dtd"><svg t="1512610534538" class="icon" style="" viewBox="0 0 1024 1024" version="1.1" xmlns="http://www.w3.org/2000/svg" p-id="2419" xmlns:xlink="http://www.w3.org/1999/xlink" width="200" height="200"><defs><style type="text/css"></style></defs><path d="M512 0a512 512 0 1 0 512 512A512 512 0 0 0 512 0z m0 930.88A418.88 418.88 0 1 1 930.88 512 418.848 418.848 0 0 1 512 930.88z m0-232.64a46.56 46.56 0 1 0 46.4 46.4A46.432 46.432 0 0 0 512 698.24z m0-465.6a46.496 46.496 0 0 0-46.4 46.72v279.04a46.4 46.4 0 1 0 92.8 0V279.36A46.496 46.496 0 0 0 512 232.64z" p-id="2420" fill="#e6e6e6"></path></svg>